<svg xmlns="http://www.w3.org/2000/svg" width="591pt" height="591pt" viewBox="0 0 591 591" version="1.1">
<g id="#ffbc00ff">
<path fill="#ffbc00" opacity="1.00" d=" M 103.43 32.65 C 132.72 23.21 165.34 24.38 193.82 36.07 C 221.96 47.46 245.87 68.93 260.19 95.70 C 273.32 119.79 278.41 148.06 274.93 175.24 C 225.64 197.08 185.56 238.65 165.58 288.72 C 138.18 293.22 109.37 288.99 84.58 276.43 C 58.32 263.32 36.76 241.13 24.33 214.55 C 16.38 197.52 11.92 178.76 11.99 159.95 C 11.23 128.48 22.69 97.01 43.07 73.08 C 58.94 54.37 80.01 40.06 103.43 32.65 M 142.55 64.52 C 124.31 83.41 105.88 102.12 87.67 121.03 C 95.15 129.04 103.24 136.48 111.01 144.21 C 129.78 124.74 148.78 105.49 167.85 86.31 C 160.25 78.82 153.07 70.92 145.36 63.53 C 144.40 62.12 143.29 63.90 142.55 64.52 M 88.09 189.64 C 95.84 197.32 103.65 204.93 111.35 212.66 C 118.82 205.71 125.57 198.03 132.92 190.96 C 155.91 167.15 179.51 143.91 202.33 119.95 C 194.53 112.22 186.79 104.42 179.02 96.65 C 148.61 127.55 118.49 158.73 88.09 189.64 M 213.40 130.60 C 201.43 143.53 188.73 155.81 176.56 168.57 C 158.69 187.07 140.44 205.21 122.75 223.88 C 130.66 231.38 138.32 239.12 146.15 246.70 C 176.35 215.73 206.76 184.99 237.00 154.07 C 228.89 146.49 221.75 137.91 213.40 130.60 M 76.42 131.84 C 68.85 139.90 61.03 147.72 53.52 155.83 C 61.32 163.43 69.09 171.06 76.87 178.68 C 84.60 170.96 92.22 163.14 99.86 155.34 C 92.10 147.46 84.22 139.69 76.42 131.84 Z"/>
</g>
<g id="#ffffffff">
<path fill="#ffffff" opacity="1.00" d=" M 142.55 64.52 C 143.29 63.90 144.40 62.12 145.36 63.53 C 153.07 70.92 160.25 78.82 167.85 86.31 C 148.78 105.49 129.78 124.74 111.01 144.21 C 103.24 136.48 95.15 129.04 87.67 121.03 C 105.88 102.12 124.31 83.41 142.55 64.52 Z"/>
<path fill="#ffffff" opacity="1.00" d=" M 88.09 189.64 C 118.49 158.73 148.61 127.55 179.02 96.65 C 186.79 104.42 194.53 112.22 202.33 119.95 C 179.51 143.91 155.91 167.15 132.92 190.96 C 125.57 198.03 118.82 205.71 111.35 212.66 C 103.65 204.93 95.84 197.32 88.09 189.64 Z"/>
<path fill="#ffffff" opacity="1.00" d=" M 213.40 130.60 C 221.75 137.91 228.89 146.49 237.00 154.07 C 206.76 184.99 176.35 215.73 146.15 246.70 C 138.32 239.12 130.66 231.38 122.75 223.88 C 140.44 205.21 158.69 187.07 176.56 168.57 C 188.73 155.81 201.43 143.53 213.40 130.60 Z"/>
<path fill="#ffffff" opacity="1.00" d=" M 76.42 131.84 C 84.22 139.69 92.10 147.46 99.86 155.34 C 92.22 163.14 84.60 170.96 76.87 178.68 C 69.09 171.06 61.32 163.43 53.52 155.83 C 61.03 147.72 68.85 139.90 76.42 131.84 Z"/>
</g>
<g id="#313131ff">
<path fill="#313131" opacity="1.00" d=" M 274.93 175.24 C 331.23 149.81 398.88 151.14 454.05 179.02 C 490.47 196.99 521.32 225.96 541.82 260.99 C 560.82 293.19 570.78 330.61 570.51 367.99 C 570.49 406.15 559.73 444.23 539.73 476.73 C 519.83 509.30 490.86 536.25 456.95 553.78 C 428.33 568.54 396.25 576.76 364.03 577.01 C 322.65 578.00 281.11 566.07 246.42 543.52 C 215.98 523.83 190.75 496.15 174.06 463.97 C 145.94 410.48 142.83 344.68 165.58 288.72 C 185.56 238.65 225.64 197.08 274.93 175.24 M 371.64 265.72 C 354.00 281.23 336.18 296.54 318.45 311.95 C 305.64 322.94 293.00 334.13 280.18 345.11 L 280.20 345.26 C 273.00 351.09 266.30 357.50 259.18 363.42 L 259.21 363.78 C 255.68 365.99 252.89 369.13 249.66 371.73 C 246.24 374.50 243.64 378.46 243.15 382.90 C 240.24 402.57 237.84 422.32 235.13 442.03 C 234.55 444.58 236.40 446.93 238.88 447.41 C 253.87 451.80 268.85 456.24 283.86 460.59 C 295.22 463.88 306.51 467.41 317.88 470.66 C 323.91 472.28 329.80 474.44 335.90 475.77 C 340.26 476.57 344.38 474.30 347.42 471.37 C 372.51 449.27 398.02 427.64 423.28 405.73 C 430.04 399.95 436.74 394.08 443.49 388.29 C 450.57 382.30 457.50 376.13 464.55 370.11 C 476.38 360.03 488.03 349.74 499.84 339.64 C 490.21 324.51 480.06 309.71 470.72 294.39 C 466.05 286.55 457.86 281.18 448.94 279.49 C 437.25 276.44 425.68 272.94 414.07 269.57 C 404.96 267.16 396.11 263.71 386.90 261.74 L 386.41 262.05 L 386.07 261.28 C 380.92 258.77 375.28 262.00 371.64 265.72 Z"/>
<path fill="#313131" opacity="1.00" d=" M 376.55 276.63 C 379.74 273.70 384.19 272.18 388.48 273.34 C 397.43 276.35 406.44 279.20 415.50 281.90 C 427.54 285.88 440.16 288.20 451.76 293.45 C 451.20 293.97 450.64 294.50 450.09 295.03 C 441.49 302.57 432.58 309.74 423.99 317.30 C 416.79 323.61 409.46 329.78 402.24 336.08 C 381.74 353.74 361.25 371.41 340.65 388.95 C 337.15 391.66 334.13 395.52 329.57 396.41 C 327.20 396.98 324.83 396.14 322.55 395.57 C 316.22 393.77 309.85 392.13 303.55 390.23 C 292.19 386.94 280.79 383.76 269.45 380.39 C 266.42 379.44 263.52 378.11 260.68 376.70 C 260.94 376.46 261.46 375.98 261.73 375.74 C 268.69 369.52 275.85 363.52 282.86 357.34 C 295.82 346.14 308.88 335.05 321.83 323.84 C 340.11 308.15 358.35 292.41 376.55 276.63 Z"/>
<path fill="#313131" opacity="1.00" d=" M 454.94 306.83 C 457.14 305.05 459.39 303.33 461.64 301.62 C 467.91 311.29 474.25 320.92 480.33 330.72 C 481.52 332.70 482.84 334.70 483.31 337.01 C 482.87 339.02 481.24 340.41 479.80 341.75 C 472.97 347.62 466.03 353.37 459.27 359.32 C 452.82 365.03 446.13 370.46 439.67 376.16 C 433.05 381.94 426.32 387.60 419.67 393.35 C 394.69 414.69 369.89 436.25 344.80 457.47 C 341.91 447.14 341.36 436.38 339.58 425.84 C 338.95 420.61 337.16 415.31 338.42 410.04 C 339.39 406.42 341.83 403.41 344.61 400.98 C 364.97 383.73 385.26 366.39 405.55 349.04 C 412.91 342.82 420.19 336.50 427.55 330.26 C 436.76 322.55 445.76 314.58 454.94 306.83 Z"/>
<path fill="#313131" opacity="1.00" d=" M 248.69 429.15 C 251.14 415.70 252.56 402.10 254.58 388.59 C 260.36 390.22 266.11 391.92 271.92 393.45 C 282.57 396.36 293.12 399.67 303.78 402.59 C 309.60 404.38 315.61 405.62 321.34 407.72 C 325.44 409.30 326.92 413.85 327.19 417.87 C 328.95 432.70 331.86 447.42 332.82 462.33 C 327.51 460.91 322.19 459.55 316.89 458.10 C 305.09 454.78 293.33 451.35 281.63 447.72 C 273.39 445.19 265.11 442.76 256.83 440.37 C 254.37 439.57 251.61 439.12 249.65 437.33 C 247.46 435.16 248.38 431.83 248.69 429.15 Z"/>
</g>
<g id="#f9f0baff">
<path fill="#f9f0ba" opacity="1.00" d=" M 371.64 265.72 C 375.28 262.00 380.92 258.77 386.07 261.28 L 386.41 262.05 C 387.10 265.81 387.79 269.57 388.48 273.34 C 384.19 272.18 379.74 273.70 376.55 276.63 C 358.35 292.41 340.11 308.15 321.83 323.84 C 319.84 320.16 319.02 316.04 318.45 311.95 C 336.18 296.54 354.00 281.23 371.64 265.72 Z"/>
<path fill="#f9f0ba" opacity="1.00" d=" M 340.65 388.95 C 361.25 371.41 381.74 353.74 402.24 336.08 C 403.89 340.24 404.79 344.64 405.55 349.04 C 385.26 366.39 364.97 383.73 344.61 400.98 C 341.44 397.79 341.58 393.05 340.65 388.95 Z"/>
<path fill="#f9f0ba" opacity="1.00" d=" M 344.80 457.47 C 369.89 436.25 394.69 414.69 419.67 393.35 C 420.78 397.50 421.92 401.65 423.28 405.73 C 398.02 427.64 372.51 449.27 347.42 471.37 C 346.07 466.83 344.89 462.22 344.80 457.47 Z"/>
</g>
<g id="#fce793ff">
<path fill="#fce793" opacity="1.00" d=" M 386.41 262.05 L 386.90 261.74 C 396.11 263.71 404.96 267.16 414.07 269.57 C 414.83 273.63 416.73 277.74 415.50 281.90 C 406.44 279.20 397.43 276.35 388.48 273.34 C 387.79 269.57 387.10 265.81 386.41 262.05 Z"/>
<path fill="#fce793" opacity="1.00" d=" M 280.18 345.11 C 293.00 334.13 305.64 322.94 318.45 311.95 C 319.02 316.04 319.84 320.16 321.83 323.84 C 308.88 335.05 295.82 346.14 282.86 357.34 C 281.81 353.36 280.82 349.34 280.20 345.26 L 280.18 345.11 Z"/>
<path fill="#fce793" opacity="1.00" d=" M 402.24 336.08 C 409.46 329.78 416.79 323.61 423.99 317.30 C 425.42 321.55 426.22 325.98 427.55 330.26 C 420.19 336.50 412.91 342.82 405.55 349.04 C 404.79 344.64 403.89 340.24 402.24 336.08 Z"/>
<path fill="#fce793" opacity="1.00" d=" M 419.67 393.35 C 426.32 387.60 433.05 381.94 439.67 376.16 C 441.27 380.09 442.39 384.19 443.49 388.29 C 436.74 394.08 430.04 399.95 423.28 405.73 C 421.92 401.65 420.78 397.50 419.67 393.35 Z"/>
<path fill="#fce793" opacity="1.00" d=" M 329.57 396.41 C 334.13 395.52 337.15 391.66 340.65 388.95 C 341.58 393.05 341.44 397.79 344.61 400.98 C 341.83 403.41 339.39 406.42 338.42 410.04 C 337.16 415.31 338.95 420.61 339.58 425.84 C 341.36 436.38 341.91 447.14 344.80 457.47 C 344.89 462.22 346.07 466.83 347.42 471.37 C 344.38 474.30 340.26 476.57 335.90 475.77 C 329.80 474.44 323.91 472.28 317.88 470.66 C 317.29 466.50 315.86 462.31 316.89 458.10 C 322.19 459.55 327.51 460.91 332.82 462.33 C 331.86 447.42 328.95 432.70 327.19 417.87 C 326.92 413.85 325.44 409.30 321.34 407.72 C 315.61 405.62 309.60 404.38 303.78 402.59 C 303.84 398.50 301.24 394.05 303.55 390.23 C 309.85 392.13 316.22 393.77 322.55 395.57 C 324.83 396.14 327.20 396.98 329.57 396.41 Z"/>
</g>
<g id="#f5cd69ff">
<path fill="#f5cd69" opacity="1.00" d=" M 414.07 269.57 C 425.68 272.94 437.25 276.44 448.94 279.49 C 450.22 284.06 451.68 288.65 451.76 293.45 C 440.16 288.20 427.54 285.88 415.50 281.90 C 416.73 277.74 414.83 273.63 414.07 269.57 Z"/>
<path fill="#f5cd69" opacity="1.00" d=" M 423.99 317.30 C 432.58 309.74 441.49 302.57 450.09 295.03 C 453.54 297.99 453.79 302.74 454.94 306.83 C 445.76 314.58 436.76 322.55 427.55 330.26 C 426.22 325.98 425.42 321.55 423.99 317.30 Z"/>
<path fill="#f5cd69" opacity="1.00" d=" M 259.18 363.42 C 266.30 357.50 273.00 351.09 280.20 345.26 C 280.82 349.34 281.81 353.36 282.86 357.34 C 275.85 363.52 268.69 369.52 261.73 375.74 C 260.03 371.98 259.46 367.87 259.21 363.78 L 259.18 363.42 Z"/>
<path fill="#f5cd69" opacity="1.00" d=" M 439.67 376.16 C 446.13 370.46 452.82 365.03 459.27 359.32 C 463.27 361.46 463.62 366.16 464.55 370.11 C 457.50 376.13 450.57 382.30 443.49 388.29 C 442.39 384.19 441.27 380.09 439.67 376.16 Z"/>
<path fill="#f5cd69" opacity="1.00" d=" M 269.45 380.39 C 280.79 383.76 292.19 386.94 303.55 390.23 C 301.24 394.05 303.84 398.50 303.78 402.59 C 293.12 399.67 282.57 396.36 271.92 393.45 C 271.19 389.08 270.18 384.76 269.45 380.39 Z"/>
<path fill="#f5cd69" opacity="1.00" d=" M 281.63 447.72 C 293.33 451.35 305.09 454.78 316.89 458.10 C 315.86 462.31 317.29 466.50 317.88 470.66 C 306.51 467.41 295.22 463.88 283.86 460.59 C 283.11 456.30 282.36 452.01 281.63 447.72 Z"/>
</g>
<g id="#dfa14eff">
<path fill="#dfa14e" opacity="1.00" d=" M 448.94 279.49 C 457.86 281.18 466.05 286.55 470.72 294.39 C 480.06 309.71 490.21 324.51 499.84 339.64 C 488.03 349.74 476.38 360.03 464.55 370.11 C 463.62 366.16 463.27 361.46 459.27 359.32 C 466.03 353.37 472.97 347.62 479.80 341.75 C 481.24 340.41 482.87 339.02 483.31 337.01 C 482.84 334.70 481.52 332.70 480.33 330.72 C 474.25 320.92 467.91 311.29 461.64 301.62 C 459.39 303.33 457.14 305.05 454.94 306.83 C 453.79 302.74 453.54 297.99 450.09 295.03 C 450.64 294.50 451.20 293.97 451.76 293.45 C 451.68 288.65 450.22 284.06 448.94 279.49 Z"/>
<path fill="#dfa14e" opacity="1.00" d=" M 249.66 371.73 C 252.89 369.13 255.68 365.99 259.21 363.78 C 259.46 367.87 260.03 371.98 261.73 375.74 C 261.46 375.98 260.94 376.46 260.68 376.70 C 263.52 378.11 266.42 379.44 269.45 380.39 C 270.18 384.76 271.19 389.08 271.92 393.45 C 266.11 391.92 260.36 390.22 254.58 388.59 C 252.56 402.10 251.14 415.70 248.69 429.15 C 248.38 431.83 247.46 435.16 249.65 437.33 C 251.61 439.12 254.37 439.57 256.83 440.37 C 265.11 442.76 273.39 445.19 281.63 447.72 C 282.36 452.01 283.11 456.30 283.86 460.59 C 268.85 456.24 253.87 451.80 238.88 447.41 C 236.40 446.93 234.55 444.58 235.13 442.03 C 237.84 422.32 240.24 402.57 243.15 382.90 C 243.64 378.46 246.24 374.50 249.66 371.73 Z"/>
</g>
</svg>